<svg class="animated" id="freepik_stories-cherry" xmlns="http://www.w3.org/2000/svg" viewBox="0 0 500 500" version="1.1" xmlns:xlink="http://www.w3.org/1999/xlink" xmlns:svgjs="http://svgjs.com/svgjs"><style>svg#freepik_stories-cherry:not(.animated) .animable {opacity: 0;}svg#freepik_stories-cherry.animated #freepik--background-simple--inject-58 {animation: 6s Infinite  linear floating;animation-delay: 0s;}svg#freepik_stories-cherry.animated #freepik--leaves-3--inject-58 {animation: 6s Infinite  linear floating;animation-delay: 0s;}            @keyframes floating {                0% {                    opacity: 1;                    transform: translateY(0px);                }                50% {                    transform: translateY(-10px);                }                100% {                    opacity: 1;                    transform: translateY(0px);                }            }        </style><g id="freepik--background-simple--inject-58" class="animable" style="transform-origin: 250.182px 253.319px;"><path d="M156.87,466.82s-89.36-33.92-130.73-139S133.7,149.1,132,133.38s-105.9-24-43.85-74.47S367.85,2.65,447.29,111,444,255,435.7,274s73.64,26.47,16.55,124.11S222.23,493.3,156.87,466.82Z" style="fill: rgb(0, 255, 136); transform-origin: 250.182px 253.319px;" id="el70zjvn03rv" class="animable"></path><g id="elouxg64qj35"><path d="M156.87,466.82s-89.36-33.92-130.73-139S133.7,149.1,132,133.38s-105.9-24-43.85-74.47S367.85,2.65,447.29,111,444,255,435.7,274s73.64,26.47,16.55,124.11S222.23,493.3,156.87,466.82Z" style="fill: rgb(255, 255, 255); opacity: 0.7; transform-origin: 250.182px 253.319px;" class="animable"></path></g></g><g id="freepik--leaves-3--inject-58" class="animable" style="transform-origin: 253.795px 264.231px;"><path d="M283.39,64.43l6.62-.74S312.28,52.62,327.75,49s55-7.93,73.65,1.34S446.73,87,454.52,97.47s15.66,15,16.55,16.86-9.89,2.4-15.4,2.9-37.85,15.75-60.76,7.3-51.24-27.29-61.2-32.72-31.6-17.2-35.48-20a25.7,25.7,0,0,0-8.44-4.35,61.72,61.72,0,0,0-8.27-.89S276.77,65.18,283.39,64.43Z" style="fill: none; stroke: rgb(38, 50, 56); stroke-miterlimit: 10; transform-origin: 375.496px 85.9252px;" id="el2kj86aoq18j" class="animable"></path><path d="M290.74,65.4s42.4,2.9,61.5,7.86,110.07,37.95,111,39.15" style="fill: none; stroke: rgb(38, 50, 56); stroke-miterlimit: 10; transform-origin: 376.99px 88.905px;" id="el63tyn54wapc" class="animable"></path><path d="M321.21,61.73c3.51-3.51,8-7.78,10.31-8.87,4-1.93,11.76-4.56,11.76-4.56" style="fill: none; stroke: rgb(38, 50, 56); stroke-miterlimit: 10; transform-origin: 332.245px 55.015px;" id="eleaowt8k4o0r" class="animable"></path><path d="M316.41,66.69s.92-1,2.33-2.44" style="fill: none; stroke: rgb(38, 50, 56); stroke-miterlimit: 10; transform-origin: 317.575px 65.47px;" id="elw02cqprze4" class="animable"></path><path d="M350.82,88c4.56,6.3,10.87,14.13,10.87,14.13" style="fill: none; stroke: rgb(38, 50, 56); stroke-miterlimit: 10; transform-origin: 356.255px 95.065px;" id="elj12qlgr3f7" class="animable"></path><path d="M375.26,51.73s-12.68,1.37-18.18,5.14-16.87,13.28-16.87,13.28,3.69,7.3,7.64,13.47" style="fill: none; stroke: rgb(38, 50, 56); stroke-miterlimit: 10; transform-origin: 357.735px 67.675px;" id="eljr0hw2jv8no" class="animable"></path><path d="M332.76,85.58c2.85,3.3,5.18,5.77,5.18,5.77" style="fill: none; stroke: rgb(38, 50, 56); stroke-miterlimit: 10; transform-origin: 335.35px 88.465px;" id="elqwrblq3rd69" class="animable"></path><path d="M323.08,68.86s1.95,7.3,6.12,12.47l1.09,1.34" style="fill: none; stroke: rgb(38, 50, 56); stroke-miterlimit: 10; transform-origin: 326.685px 75.765px;" id="elsmttl2osx1" class="animable"></path><path d="M349.41,53.87a104.17,104.17,0,0,0,10.28-4.35" style="fill: none; stroke: rgb(38, 50, 56); stroke-miterlimit: 10; transform-origin: 354.55px 51.695px;" id="elkj6nv92b8mr" class="animable"></path><path d="M326,68.81a199.35,199.35,0,0,1,18.39-12.47" style="fill: none; stroke: rgb(38, 50, 56); stroke-miterlimit: 10; transform-origin: 335.195px 62.575px;" id="eliyupiq9fvg" class="animable"></path><path d="M318.08,56.15s-6.89,3.26-10.62,7.59" style="fill: none; stroke: rgb(38, 50, 56); stroke-miterlimit: 10; transform-origin: 312.77px 59.945px;" id="eleekjp60zvv4" class="animable"></path><path d="M306.44,68.17a29.64,29.64,0,0,0,3.63,10.2" style="fill: none; stroke: rgb(38, 50, 56); stroke-miterlimit: 10; transform-origin: 308.255px 73.27px;" id="eln5umilgosb" class="animable"></path><path d="M356.32,75.87s10.57,26.94,25.27,40.69" style="fill: none; stroke: rgb(38, 50, 56); stroke-miterlimit: 10; transform-origin: 368.955px 96.215px;" id="eln6xf49bjdrf" class="animable"></path><path d="M370.66,63.83C379.07,58.2,390.2,52,398.53,51.68" style="fill: none; stroke: rgb(38, 50, 56); stroke-miterlimit: 10; transform-origin: 384.595px 57.755px;" id="el7buv4morkii" class="animable"></path><path d="M358.46,72.83S361.92,70,367,66.32" style="fill: none; stroke: rgb(38, 50, 56); stroke-miterlimit: 10; transform-origin: 362.73px 69.575px;" id="eldu37gkrrkx" class="animable"></path><path d="M406.65,63.79c-9,1.33-24.2,4.8-34.32,13.62" style="fill: none; stroke: rgb(38, 50, 56); stroke-miterlimit: 10; transform-origin: 389.49px 70.6px;" id="elwvu0zrrg17e" class="animable"></path><path d="M414.22,63s-1.47.06-3.92.33" style="fill: none; stroke: rgb(38, 50, 56); stroke-miterlimit: 10; transform-origin: 412.26px 63.165px;" id="elvl19iq7mmkd" class="animable"></path><path d="M378.85,93.16c5.56,9.44,14.84,22.5,26.95,29.81" style="fill: none; stroke: rgb(38, 50, 56); stroke-miterlimit: 10; transform-origin: 392.325px 108.065px;" id="el6z3ivq7xly8" class="animable"></path><path d="M373,81.83s1.4,3.27,4.05,8.08" style="fill: none; stroke: rgb(38, 50, 56); stroke-miterlimit: 10; transform-origin: 375.025px 85.87px;" id="el4vap0z2ptxx" class="animable"></path><path d="M415,116.56a44.08,44.08,0,0,0,9.4,5.5" style="fill: none; stroke: rgb(38, 50, 56); stroke-miterlimit: 10; transform-origin: 419.7px 119.31px;" id="elfsdjhm3ul4s" class="animable"></path><path d="M391.3,88.71s8,14.16,19.78,24.62" style="fill: none; stroke: rgb(38, 50, 56); stroke-miterlimit: 10; transform-origin: 401.19px 101.02px;" id="elgk7zy1banvr" class="animable"></path><path d="M425.38,76.62a34,34,0,0,1,8.07,2.06" style="fill: none; stroke: rgb(38, 50, 56); stroke-miterlimit: 10; transform-origin: 429.415px 77.65px;" id="elp1dowzyd3sg" class="animable"></path><path d="M392.64,84.67s13.15-8.56,28.38-8.36" style="fill: none; stroke: rgb(38, 50, 56); stroke-miterlimit: 10; transform-origin: 406.83px 80.4883px;" id="elkda4bqaucrc" class="animable"></path><path d="M442.94,88.42s-13,1.33-22.32,6.52" style="fill: none; stroke: rgb(38, 50, 56); stroke-miterlimit: 10; transform-origin: 431.78px 91.68px;" id="elyyw6xk2l8dg" class="animable"></path><path d="M417.88,98.46s6.19,10.11,21.23,19" style="fill: none; stroke: rgb(38, 50, 56); stroke-miterlimit: 10; transform-origin: 428.495px 107.96px;" id="elrieyni4lgmf" class="animable"></path><path d="M39.27,433.78l5.28-.6s17.74-8.81,30.06-11.69,43.82-6.31,58.67,1.07,36.11,29.2,42.31,37.54,12.48,11.91,13.19,13.43-7.88,1.91-12.27,2.31-30.15,12.55-48.4,5.82-40.82-21.75-48.75-26.07-25.18-13.7-28.27-15.92a20.51,20.51,0,0,0-6.72-3.47,48.8,48.8,0,0,0-6.59-.7S34,434.37,39.27,433.78Z" style="fill: none; stroke: rgb(38, 50, 56); stroke-miterlimit: 10; transform-origin: 112.644px 450.908px;" id="el0jb6o65f5l2" class="animable"></path><path d="M45.12,434.55s33.78,2.31,49,6.26S181.8,471,182.57,472" style="fill: none; stroke: rgb(38, 50, 56); stroke-miterlimit: 10; transform-origin: 113.845px 453.275px;" id="elsgzqsbkv2ip" class="animable"></path><path d="M69.4,431.63c2.8-2.8,6.4-6.2,8.21-7.07C80.82,423,87,420.93,87,420.93" style="fill: none; stroke: rgb(38, 50, 56); stroke-miterlimit: 10; transform-origin: 78.2px 426.28px;" id="elsdcf82snt1e" class="animable"></path><path d="M65.57,435.58s.74-.79,1.86-1.95" style="fill: none; stroke: rgb(38, 50, 56); stroke-miterlimit: 10; transform-origin: 66.5px 434.605px;" id="elywrxv0z2j7" class="animable"></path><path d="M93,452.51c3.64,5,8.67,11.26,8.67,11.26" style="fill: none; stroke: rgb(38, 50, 56); stroke-miterlimit: 10; transform-origin: 97.335px 458.14px;" id="elm0p9neuga3" class="animable"></path><path d="M112.46,423.66s-10.11,1.09-14.49,4.09-13.44,10.58-13.44,10.58,2.94,5.82,6.09,10.73" style="fill: none; stroke: rgb(38, 50, 56); stroke-miterlimit: 10; transform-origin: 98.495px 436.36px;" id="elrlyl0xly2wf" class="animable"></path><path d="M78.6,450.63c2.27,2.62,4.13,4.59,4.13,4.59" style="fill: none; stroke: rgb(38, 50, 56); stroke-miterlimit: 10; transform-origin: 80.665px 452.925px;" id="elkax962ofy3" class="animable"></path><path d="M70.89,437.31a31,31,0,0,0,4.87,9.93l.87,1.07" style="fill: none; stroke: rgb(38, 50, 56); stroke-miterlimit: 10; transform-origin: 73.76px 442.81px;" id="elknx8da0s2di" class="animable"></path><path d="M91.86,425.36a83.72,83.72,0,0,0,8.19-3.46" style="fill: none; stroke: rgb(38, 50, 56); stroke-miterlimit: 10; transform-origin: 95.955px 423.63px;" id="elt2jliu019yg" class="animable"></path><path d="M73.21,437.27a159.49,159.49,0,0,1,14.66-9.94" style="fill: none; stroke: rgb(38, 50, 56); stroke-miterlimit: 10; transform-origin: 80.54px 432.3px;" id="el8zkxgru8sty" class="animable"></path><path d="M66.91,427.18s-5.49,2.6-8.47,6" style="fill: none; stroke: rgb(38, 50, 56); stroke-miterlimit: 10; transform-origin: 62.675px 430.18px;" id="elgyaczdli1n" class="animable"></path><path d="M57.63,436.76a23.72,23.72,0,0,0,2.89,8.12" style="fill: none; stroke: rgb(38, 50, 56); stroke-miterlimit: 10; transform-origin: 59.075px 440.82px;" id="elrx3qw2biann" class="animable"></path><path d="M97.37,442.89s8.41,21.46,20.13,32.42" style="fill: none; stroke: rgb(38, 50, 56); stroke-miterlimit: 10; transform-origin: 107.435px 459.1px;" id="elnb8wdflhjgj" class="animable"></path><path d="M108.79,433.3c6.7-4.48,15.56-9.45,22.2-9.68" style="fill: none; stroke: rgb(38, 50, 56); stroke-miterlimit: 10; transform-origin: 119.89px 428.46px;" id="elw0ovf6o17zf" class="animable"></path><path d="M99.07,440.47s2.76-2.29,6.84-5.19" style="fill: none; stroke: rgb(38, 50, 56); stroke-miterlimit: 10; transform-origin: 102.49px 437.875px;" id="el7pdrjnavlei" class="animable"></path><path d="M137.46,433.27c-7.2,1.06-19.28,3.82-27.34,10.84" style="fill: none; stroke: rgb(38, 50, 56); stroke-miterlimit: 10; transform-origin: 123.79px 438.69px;" id="ellzccsan2drk" class="animable"></path><path d="M143.49,432.63s-1.17.05-3.12.26" style="fill: none; stroke: rgb(38, 50, 56); stroke-miterlimit: 10; transform-origin: 141.93px 432.76px;" id="elircmtf0br5" class="animable"></path><path d="M115.32,456.66c4.42,7.53,11.81,17.92,21.47,23.75" style="fill: none; stroke: rgb(38, 50, 56); stroke-miterlimit: 10; transform-origin: 126.055px 468.535px;" id="elrh1n34bc0vo" class="animable"></path><path d="M110.61,447.64s1.12,2.61,3.23,6.44" style="fill: none; stroke: rgb(38, 50, 56); stroke-miterlimit: 10; transform-origin: 112.225px 450.86px;" id="elxpgb2k78eo9" class="animable"></path><path d="M144.14,475.3a35.12,35.12,0,0,0,7.49,4.39" style="fill: none; stroke: rgb(38, 50, 56); stroke-miterlimit: 10; transform-origin: 147.885px 477.495px;" id="el91i5a7b11bp" class="animable"></path><path d="M125.23,453.11s6.34,11.28,15.76,19.62" style="fill: none; stroke: rgb(38, 50, 56); stroke-miterlimit: 10; transform-origin: 133.11px 462.92px;" id="el2k8hkl7h37k" class="animable"></path><path d="M152.38,443.49a26.79,26.79,0,0,1,6.43,1.64" style="fill: none; stroke: rgb(38, 50, 56); stroke-miterlimit: 10; transform-origin: 155.595px 444.31px;" id="ell21l0dm5fz" class="animable"></path><path d="M126.3,449.9s10.47-6.82,22.61-6.66" style="fill: none; stroke: rgb(38, 50, 56); stroke-miterlimit: 10; transform-origin: 137.605px 446.569px;" id="elg9mmmcdg7b" class="animable"></path><path d="M166.37,452.89S156,454,148.59,458.08" style="fill: none; stroke: rgb(38, 50, 56); stroke-miterlimit: 10; transform-origin: 157.48px 455.485px;" id="elzgf0e8fu39b" class="animable"></path><path d="M146.41,460.88s4.92,8.06,16.91,15.13" style="fill: none; stroke: rgb(38, 50, 56); stroke-miterlimit: 10; transform-origin: 154.865px 468.445px;" id="elgz9wb740u8" class="animable"></path></g><g id="freepik--cherries-3--inject-58" class="animable" style="transform-origin: 255.157px 249.663px;"><path d="M322.16,412.72c-6.29,13.19-5.24,28.79,1.18,39.31s16.86,21.29,35.09,23.43,35-7.45,42.28-16.76,5.06-20.62,1.18-27.23c-.87-1.5-1.79-3.27-2.69-5.13a26.89,26.89,0,0,1-3,.93,2,2,0,0,1-2.49-1.87c0-.14,0-.3,0-.45a11.8,11.8,0,0,1,.12-1.94,2.12,2.12,0,0,1,1.54-1.76l1.31-.4c-1.94-4.43-3.37-8.16-3.37-8.16a19.37,19.37,0,0,0-6.35-18.8c-6.2-5.37-19.72-9.37-31.88-6S328.45,399.54,322.16,412.72Z" style="fill: none; stroke: rgb(38, 50, 56); stroke-miterlimit: 10; transform-origin: 361.721px 431.206px;" id="elauzsonve6ku" class="animable"></path><path d="M395.4,421.25a2.12,2.12,0,0,0-1.54,1.76,11.8,11.8,0,0,0-.12,1.94c0,.15,0,.31,0,.45a2,2,0,0,0,2.49,1.87,26.89,26.89,0,0,0,3-.93c.94-.35,2.05-.8,3.32-1.36,6.25-2.78,21.47-8.69,37.52-21.89s24.47-27.61,28.95-32.56,10.27-12.94,11.17-15,.89-3.06,1.85-4.49.47-4.88.47-4.88-1.15-2.68-4.52-.55-6.86,14-6.86,14A128.34,128.34,0,0,1,459,377.64c-7.75,9.79-20.12,22.53-33.23,30.74-10.16,6.38-23.58,10.8-29.09,12.47Z" style="fill: none; stroke: rgb(38, 50, 56); stroke-miterlimit: 10; transform-origin: 438.186px 386.059px;" id="el6bfhv0de0j7" class="animable"></path><path d="M480.65,350s-.53.55-1.61,0a2.82,2.82,0,0,1-1.4-1.56l-1.06-.1" style="fill: none; stroke: rgb(38, 50, 56); stroke-miterlimit: 10; transform-origin: 478.615px 349.292px;" id="el950iyew1mm8" class="animable"></path><path d="M480.32,352.8a4.33,4.33,0,0,1-1.9-.72l-.54-.53a5.32,5.32,0,0,1-1.5-.5l-.33-.27" style="fill: none; stroke: rgb(38, 50, 56); stroke-miterlimit: 10; transform-origin: 478.185px 351.79px;" id="elu0hpxip43nl" class="animable"></path><path d="M478.55,357.52s-1.62.67-2.31-.17a7.51,7.51,0,0,1-1.07-1.83,1.25,1.25,0,0,1-1.06-.1" style="fill: none; stroke: rgb(38, 50, 56); stroke-miterlimit: 10; transform-origin: 476.33px 356.597px;" id="elemjqgv9077" class="animable"></path><path d="M478,354.84a1.38,1.38,0,0,1-1.4-.38,2.56,2.56,0,0,1-.59-1.25,1.49,1.49,0,0,1-1-.33" style="fill: none; stroke: rgb(38, 50, 56); stroke-miterlimit: 10; transform-origin: 476.505px 353.888px;" id="elhpssfurj63k" class="animable"></path><path d="M475.05,359.2a1.88,1.88,0,0,1-2-1.2" style="fill: none; stroke: rgb(38, 50, 56); stroke-miterlimit: 10; transform-origin: 474.05px 358.608px;" id="elrjx9ovfztn" class="animable"></path><path d="M476.72,359.78s-.44.26-.8-.31" style="fill: none; stroke: rgb(38, 50, 56); stroke-miterlimit: 10; transform-origin: 476.32px 359.655px;" id="elnd4vqazdfz" class="animable"></path><path d="M398.46,433.93s-9.57-5.25-7.93-19.2" style="fill: none; stroke: rgb(38, 50, 56); stroke-miterlimit: 10; transform-origin: 394.4px 424.33px;" id="elih5ngiy7z1" class="animable"></path><path d="M95.66,399.56c-14.85,6.39-32.06,4.57-43.41-3S29.43,377.05,27.83,356.8s9.73-38.41,20.32-46,23-4.72,30.17-.15c1.61,1,3.53,2.11,5.55,3.19A27.69,27.69,0,0,0,82.72,317a2.22,2.22,0,0,0,2,2.82l.5,0a13.17,13.17,0,0,0,2.15,0,2.37,2.37,0,0,0,2-1.63c.14-.39.3-.87.49-1.43,4.83,2.33,8.89,4.07,8.89,4.07a21.43,21.43,0,0,1,20.51,7.82c5.68,7.08,9.53,22.2,5.32,35.51S110.5,393.16,95.66,399.56Z" style="fill: none; stroke: rgb(38, 50, 56); stroke-miterlimit: 10; transform-origin: 77.0198px 354.779px;" id="elumo174dqkj9" class="animable"></path><path d="M89.34,318.22a2.37,2.37,0,0,1-2,1.63,13.17,13.17,0,0,1-2.15,0l-.5,0a2.22,2.22,0,0,1-2-2.82,27.69,27.69,0,0,1,1.15-3.24c.43-1,1-2.23,1.64-3.61,3.35-6.79,10.52-23.37,25.79-40.55s31.57-25.89,37.24-30.63,14.74-10.81,17-11.72,3.43-.85,5.05-1.85,5.41-.32,5.41-.32,2.92,1.38.42,5-15.73,7-15.73,7a141.72,141.72,0,0,0-20.47,12.58c-11.15,8.15-25.76,21.29-35.4,35.43-7.48,11-12.94,25.62-15,31.64C89.64,317.35,89.48,317.83,89.34,318.22Z" style="fill: none; stroke: rgb(38, 50, 56); stroke-miterlimit: 10; transform-origin: 130.004px 272.389px;" id="el5fbqes0wpwm" class="animable"></path><path d="M171.69,227s-.62.57-.09,1.79a3.14,3.14,0,0,0,1.67,1.61l.07,1.18" style="fill: none; stroke: rgb(38, 50, 56); stroke-miterlimit: 10; transform-origin: 172.363px 229.29px;" id="el0ciy3vrdbpcg" class="animable"></path><path d="M168.62,227.23a4.72,4.72,0,0,0,.72,2.13l.56.62a6,6,0,0,0,.49,1.68l.29.38" style="fill: none; stroke: rgb(38, 50, 56); stroke-miterlimit: 10; transform-origin: 169.65px 229.635px;" id="elnvid2wgf87n" class="animable"></path><path d="M163.33,229s-.82,1.76.09,2.56a8.24,8.24,0,0,0,2,1.26,1.35,1.35,0,0,0,.07,1.18" style="fill: none; stroke: rgb(38, 50, 56); stroke-miterlimit: 10; transform-origin: 164.24px 231.5px;" id="elxig8yio0b1o" class="animable"></path><path d="M166.27,229.74a1.5,1.5,0,0,0,.35,1.55A2.86,2.86,0,0,0,168,232a1.7,1.7,0,0,0,.33,1.17" style="fill: none; stroke: rgb(38, 50, 56); stroke-miterlimit: 10; transform-origin: 167.258px 231.455px;" id="el53pa00rxtq" class="animable"></path><path d="M161.32,232.79a2.08,2.08,0,0,0,1.25,2.23" style="fill: none; stroke: rgb(38, 50, 56); stroke-miterlimit: 10; transform-origin: 161.933px 233.905px;" id="eluubg739n4oe" class="animable"></path><path d="M160.75,230.91s-.3.48.31.91" style="fill: none; stroke: rgb(38, 50, 56); stroke-miterlimit: 10; transform-origin: 160.868px 231.365px;" id="el8llybf21bqk" class="animable"></path><path d="M75.45,314.3s5.4,10.8,20.89,9.57" style="fill: none; stroke: rgb(38, 50, 56); stroke-miterlimit: 10; transform-origin: 85.895px 319.134px;" id="elzuh151xbb1a" class="animable"></path><path d="M139.56,61.35c.51-12.13-5.38-23.72-13.72-29.67S106,20.91,91.37,25.21,67,42.34,64.51,51.82s2.86,17.42,8,21.21c1.15.85,2.43,1.91,3.73,3a21.87,21.87,0,0,1,2-1.68,1.67,1.67,0,0,1,2.51.62,3.54,3.54,0,0,1,.16.34,10.19,10.19,0,0,1,.54,1.52,1.78,1.78,0,0,1-.6,1.85l-.88.73c2.93,2.76,5.24,5.15,5.24,5.15a16.13,16.13,0,0,0,11,12.3c6.49,2.08,18.13.73,26.34-5.79S139.05,73.48,139.56,61.35Z" style="fill: none; stroke: rgb(38, 50, 56); stroke-miterlimit: 10; transform-origin: 101.735px 60.6632px;" id="elv8o1kyq8u9" class="animable"></path><path d="M80.79,78.72a1.78,1.78,0,0,0,.6-1.85,10.19,10.19,0,0,0-.54-1.52,3.54,3.54,0,0,0-.16-.34,1.67,1.67,0,0,0-2.51-.62,21.87,21.87,0,0,0-2,1.68c-.61.57-1.31,1.28-2.1,2.12-3.86,4.17-13.58,13.65-21.54,29s-9.7,29.09-11.51,34.34-3.63,13.25-3.66,15.09.33,2.64.06,4,1.23,3.89,1.23,3.89,1.75,1.68,3.63-1.05.69-12.92.69-12.92a106.5,106.5,0,0,1,3.35-17.74c2.73-10,8-23.78,15.37-34.34,5.68-8.19,14.5-15.94,18.17-19Z" style="fill: none; stroke: rgb(38, 50, 56); stroke-miterlimit: 10; transform-origin: 59.41px 119.539px;" id="elbboklx50oym" class="animable"></path><path d="M38.84,161s.23-.58,1.23-.54a2.38,2.38,0,0,1,1.58.74l.84-.26" style="fill: none; stroke: rgb(38, 50, 56); stroke-miterlimit: 10; transform-origin: 40.665px 160.829px;" id="elaig0xr0ii3p" class="animable"></path><path d="M38.19,158.75a3.7,3.7,0,0,1,1.69-.07l.58.23a4.48,4.48,0,0,1,1.32-.1l.34.09" style="fill: none; stroke: rgb(38, 50, 56); stroke-miterlimit: 10; transform-origin: 40.155px 158.762px;" id="eljtqytpalkb" class="animable"></path><path d="M38,154.57s1-1,1.81-.63A6.2,6.2,0,0,1,41.24,155a1,1,0,0,1,.85-.26" style="fill: none; stroke: rgb(38, 50, 56); stroke-miterlimit: 10; transform-origin: 40.045px 154.429px;" id="el00kke197qorwv" class="animable"></path><path d="M39.32,156.43a1.14,1.14,0,0,1,1.19-.17,2.21,2.21,0,0,1,.86.76,1.26,1.26,0,0,1,.9-.08" style="fill: none; stroke: rgb(38, 50, 56); stroke-miterlimit: 10; transform-origin: 40.795px 156.592px;" id="elaovr56a0q8e" class="animable"></path><path d="M40.13,152.14a1.56,1.56,0,0,1,1.9.28" style="fill: none; stroke: rgb(38, 50, 56); stroke-miterlimit: 10; transform-origin: 41.08px 152.178px;" id="ela938poeu03u" class="animable"></path><path d="M38.67,152.24s.25-.34.71,0" style="fill: none; stroke: rgb(38, 50, 56); stroke-miterlimit: 10; transform-origin: 39.025px 152.164px;" id="el8tx95vzk229" class="animable"></path><path d="M74.31,70s9,.9,12.32,12.1" style="fill: none; stroke: rgb(38, 50, 56); stroke-miterlimit: 10; transform-origin: 80.47px 76.05px;" id="elskj4zc4ewgq" class="animable"></path></g><g id="freepik--leaf-2--inject-58" class="animable" style="transform-origin: 267.07px 117.766px;"><path d="M218,67.27s6.27,49.25,20.07,68.39,44.86,25.4,51.76,27,26.35,6.9,26.35,6.9-10.35-9.09-15.06-33.25S283.55,88.6,261,77.94,219.56,63.82,218,67.27Z" style="fill: rgb(0, 255, 136); transform-origin: 267.09px 117.771px;" id="eltdux4q8iv4r" class="animable"></path><path d="M226.77,77.94a67.19,67.19,0,0,0,.32,22" style="fill: none; stroke: rgb(38, 50, 56); stroke-miterlimit: 10; transform-origin: 226.553px 88.94px;" id="elkxqqvnoytuf" class="animable"></path><g id="elpnb70p01t1e"><path d="M266.92,116.21c15.06,18.5,34.19,44.54,41.72,48.93l7.13,4c-1.93-1.94-10.5-11.52-14.66-32.87-4.7-24.15-17.56-47.68-40.15-58.34s-41.4-14.12-43-10.67C218,67.27,251.87,97.7,266.92,116.21Z" style="opacity: 0.19; transform-origin: 266.865px 117.556px;" class="animable"></path></g><path d="M218,67.27s33.88,30.43,48.93,48.94,34.19,44.54,41.72,48.93" style="fill: none; stroke: rgb(38, 50, 56); stroke-miterlimit: 10; transform-origin: 263.325px 116.205px;" id="elt7sk7z73nt" class="animable"></path><path d="M230.22,75.74s7.53-3.45,19.45.32" style="fill: none; stroke: rgb(38, 50, 56); stroke-miterlimit: 10; transform-origin: 239.945px 75.1786px;" id="el9exagn342e" class="animable"></path><path d="M236.81,88.29s-4.71,25.41,2.2,43" style="fill: none; stroke: rgb(38, 50, 56); stroke-miterlimit: 10; transform-origin: 237.126px 109.79px;" id="ellfx75nr2x6a" class="animable"></path><path d="M249.06,131.41c3.63,12.88,5.32,14.28,5.32,14.28" style="fill: none; stroke: rgb(38, 50, 56); stroke-miterlimit: 10; transform-origin: 251.72px 138.55px;" id="ello1gnosmkwo" class="animable"></path><path d="M248.42,99.58a62.3,62.3,0,0,0-.51,27.46" style="fill: none; stroke: rgb(38, 50, 56); stroke-miterlimit: 10; transform-origin: 247.521px 113.31px;" id="elm4j3u3g0d5" class="animable"></path><path d="M277.12,99a20.94,20.94,0,0,1,8.62,3.42" style="fill: none; stroke: rgb(38, 50, 56); stroke-miterlimit: 10; transform-origin: 281.43px 100.71px;" id="elj6xyolub1rc" class="animable"></path><path d="M253.43,98.33a104.29,104.29,0,0,1,18.88-.06" style="fill: none; stroke: rgb(38, 50, 56); stroke-miterlimit: 10; transform-origin: 262.87px 98.1007px;" id="elx18dxob85k" class="animable"></path><path d="M261.29,84.55c4.39.39,8.49,1.36,11,3.43" style="fill: none; stroke: rgb(38, 50, 56); stroke-miterlimit: 10; transform-origin: 266.79px 86.265px;" id="elxzfffo5n2br" class="animable"></path><path d="M242.14,85.47a96.34,96.34,0,0,1,12.37-1.1" style="fill: none; stroke: rgb(38, 50, 56); stroke-miterlimit: 10; transform-origin: 248.325px 84.92px;" id="eln9ov0w3cxu" class="animable"></path><path d="M263.1,143.5a41.68,41.68,0,0,0,3.51,7.53" style="fill: none; stroke: rgb(38, 50, 56); stroke-miterlimit: 10; transform-origin: 264.855px 147.265px;" id="el9ypurgdx4v" class="animable"></path><path d="M259.39,112.76a89.24,89.24,0,0,0,2.17,25.58" style="fill: none; stroke: rgb(38, 50, 56); stroke-miterlimit: 10; transform-origin: 260.396px 125.55px;" id="el0ohkcrksamf" class="animable"></path><path d="M266.3,112.13s22.27,0,27.91,7.84" style="fill: none; stroke: rgb(38, 50, 56); stroke-miterlimit: 10; transform-origin: 280.255px 116.05px;" id="el85mjwtgisrq" class="animable"></path><path d="M270.37,125s1.57,24.47,9.41,32.31" style="fill: none; stroke: rgb(38, 50, 56); stroke-miterlimit: 10; transform-origin: 275.075px 141.155px;" id="eldztcppinua8" class="animable"></path><path d="M296.55,139.55a42.75,42.75,0,0,1,4.88,6.46" style="fill: none; stroke: rgb(38, 50, 56); stroke-miterlimit: 10; transform-origin: 298.99px 142.78px;" id="el48mwyw0dn6a" class="animable"></path><path d="M277.9,125.3A73.3,73.3,0,0,1,293,135.93" style="fill: none; stroke: rgb(38, 50, 56); stroke-miterlimit: 10; transform-origin: 285.45px 130.615px;" id="el3gga704ya0j" class="animable"></path><path d="M282,138.79s4.08,12.86,9.41,20.08" style="fill: none; stroke: rgb(38, 50, 56); stroke-miterlimit: 10; transform-origin: 286.705px 148.83px;" id="elkyr7yp4t4we" class="animable"></path><path d="M218,67.27s6.27,49.25,20.07,68.39,44.86,25.4,51.76,27,26.35,6.9,26.35,6.9-10.35-9.09-15.06-33.25S283.55,88.6,261,77.94,219.56,63.82,218,67.27Z" style="fill: none; stroke: rgb(38, 50, 56); stroke-miterlimit: 10; transform-origin: 267.09px 117.771px;" id="elslzrmjm5y1b" class="animable"></path></g><g id="freepik--cherry-2--inject-58" class="animable" style="transform-origin: 318.339px 216.557px;"><path d="M388.08,204.15a78.09,78.09,0,0,0-36.75-17.76,62.09,62.09,0,0,0-21-.4c-23.83,3.9-33.79,22.52-40.72,35.52s-13,19.49-21.23,30.75-19.92,29-1.73,64.11,57.18,53.28,83.6,51.12,54.9-17.66,68.88-42.89c17.76-32.05,5.5-71.6-5.2-91C407.63,222.16,396.46,211.32,388.08,204.15Z" style="fill: rgb(0, 255, 136); transform-origin: 342.569px 276.473px;" id="el8frj3jj3wu9" class="animable"></path><g id="elkf0q2v9kyr"><path d="M419,244c1.16,8.06.87,18.59-3.15,31.57-10.45,33.82-33.81,41.81-46.72,35.05s-32.58,4.3-39.35,28.89c-2.54,9.26-5.18,17.48-6,24.41,9.38,3,18.53,4.2,26.52,3.55,26.43-2.17,54.9-17.66,68.88-42.89C434.17,297.53,427.75,265.11,419,244Z" style="fill: rgb(255, 255, 255); opacity: 0.23; transform-origin: 375.969px 305.821px;" class="animable"></path></g><path d="M298.23,211.71s-3,1.7.86,7.23,7.66,8.09,4.25,16.18-16.6,15.33-17.45,20,.85,9.79-5.54,10.64-14.85-1.4-11.47-9.64,14.45-19.31,18.71-27.4A177.15,177.15,0,0,1,298.23,211.71Z" style="fill: rgb(255, 255, 255); transform-origin: 286.388px 238.819px;" id="el43nts1qt8pi" class="animable"></path><ellipse cx="335.57" cy="198.77" rx="18.19" ry="7.58" style="fill: rgb(255, 255, 255); transform-origin: 335.57px 198.77px;" id="els6tlg4ac0e" class="animable"></ellipse><path d="M348.13,227.57s4.33-7.79-1.74-14.29-19.06-6.5-20.35,1.3,1.29,14.29-6.5,30.32-13.86,22.53-18.2,25.56,4.77,9.53,12.13,7.36,21.66-28.59,28.16-36.38S348.13,227.57,348.13,227.57Z" style="fill: rgb(255, 255, 255); transform-origin: 324.921px 243.406px;" id="elheiciub3qr8" class="animable"></path><path d="M388.08,204.15a78.09,78.09,0,0,0-36.75-17.76,62.09,62.09,0,0,0-21-.4c-23.83,3.9-33.79,22.52-40.72,35.52s-13,19.49-21.23,30.75-19.92,29-1.73,64.11,57.18,53.28,83.6,51.12,54.9-17.66,68.88-42.89c17.76-32.05,5.5-71.6-5.2-91C407.63,222.16,396.46,211.32,388.08,204.15Z" style="fill: none; stroke: rgb(38, 50, 56); stroke-miterlimit: 10; transform-origin: 342.569px 276.473px;" id="eleppr9rnahwn" class="animable"></path><path d="M208.63,69.29s-2.77,39,19.34,91.53,48.7,71.51,55.27,83.94,8.63,16.24,11.05,15.55,9-5.88,6.22-10.71-15.2-19.34-28.33-34.54-33.85-46.29-42.48-66.32-13.13-53.55-13.82-63.91-1-19.34-1-19.34S211,64.8,208.63,69.29Z" style="fill: rgb(0, 255, 136); stroke: rgb(38, 50, 56); stroke-miterlimit: 10; transform-origin: 254.851px 162.92px;" id="elyiybu9ulen" class="animable"></path></g><g id="freepik--cherry-1--inject-58" class="animable" style="transform-origin: 238.089px 237.905px;"><path d="M230,270.89s-25.92,8.64-41.75,11.16-37.08,14-42.48,38.15,1.44,64.07,29.16,90.7,59,29.16,84.58,25.56,52.19-22.68,65.15-50.39,7.2-62.27-3.6-86.39S285.8,259,268.88,256.13,238.29,260.81,230,270.89Z" style="fill: rgb(0, 255, 136); transform-origin: 238.085px 346.635px;" id="el3wqgtldidby" class="animable"></path><g id="el1u9oufbs0no"><path d="M259.52,436.46c25.56-3.6,52.19-22.68,65.15-50.39,9.38-20.07,8.95-43.72,3.9-64.39-6.31,25.13-33.65,62.64-96,61.5-49.08-.89-76.13-20.23-87.28-30.78,3.11,20,12.28,41.84,29.62,58.5C202.65,437.54,234,440.06,259.52,436.46Z" style="fill: rgb(255, 255, 255); opacity: 0.23; transform-origin: 238.7px 379.718px;" class="animable"></path></g><path d="M218.49,276.65s-14.76,5.4-27.71,9.72-23.76,8.28-19.44,17.27,26.63-3.6,33.11-7.91,24.84-19.44,28.8-22.68,11.52-11.52,11.52-11.52L230,270.89S210.17,287.52,206.82,291s-9.74,7.5-16.61,7.5-4-5.59-1.44-7.5,27.15-12,29.87-12.94,7.66-4.63,5-3.67A42.71,42.71,0,0,0,218.49,276.65Z" style="fill: rgb(255, 255, 255); transform-origin: 207.572px 284.167px;" id="elyysksu3iy8" class="animable"></path><path d="M249.44,280.25S216,300.76,204.81,309.4s-37.43,10.08-41,26.64,3.6,20.15,23,11.88,36-34.2,41.39-39.24,19.8-14,23-21.95S254.12,276.65,249.44,280.25Z" style="fill: rgb(255, 255, 255); transform-origin: 208.126px 315.378px;" id="elsjxytmyhwmg" class="animable"></path><path d="M230,270.89s-25.92,8.64-41.75,11.16-37.08,14-42.48,38.15,1.44,64.07,29.16,90.7,59,29.16,84.58,25.56,52.19-22.68,65.15-50.39,7.2-62.27-3.6-86.39S285.8,259,268.88,256.13,238.29,260.81,230,270.89Z" style="fill: none; stroke: rgb(38, 50, 56); stroke-miterlimit: 10; transform-origin: 238.085px 346.635px;" id="elipt2gs8f4ja" class="animable"></path><path d="M219,38.2s-6.22,3.8-7.25,7.25-2.77,4.84-4.84,9-7.25,24.18-9.33,38-14.16,46.63-14.16,90.16,10.71,76,14.51,89.81a79.17,79.17,0,0,0,4.66,13.2,4.22,4.22,0,0,0,6.32,1.55l.76-.59a26.36,26.36,0,0,0,3-2.78,4.52,4.52,0,0,0,.79-4.84c-3.73-8.7-16.15-39.11-19.66-66.3-4.14-32.13,0-69.09,5.53-94.65a269.37,269.37,0,0,1,13.13-43.52s14.5-21.42,13.47-29.71S219,38.2,219,38.2Z" style="fill: rgb(0, 255, 136); stroke: rgb(38, 50, 56); stroke-miterlimit: 10; transform-origin: 204.701px 163.03px;" id="eliusbcvq8d5" class="animable"></path><path d="M215.19,46.29s-.17,1.58,2.11,2.64a5.89,5.89,0,0,0,4.39.17l1.58,1.58" style="fill: none; stroke: rgb(38, 50, 56); stroke-miterlimit: 10; transform-origin: 219.229px 48.485px;" id="elcd6rlyy2m6" class="animable"></path><path d="M211.15,50.51s2.11,1.93,3.69,2.11l1.58.17a11.29,11.29,0,0,0,2.81,1.76l.88.17" style="fill: none; stroke: rgb(38, 50, 56); stroke-miterlimit: 10; transform-origin: 215.63px 52.615px;" id="elbfar3vibisj" class="animable"></path><path d="M205.88,59.64s1.05,3.52,3.34,3.52a15.79,15.79,0,0,0,4.39-.7s.53,1.4,1.58,1.58" style="fill: none; stroke: rgb(38, 50, 56); stroke-miterlimit: 10; transform-origin: 210.535px 61.84px;" id="elnhb34w1rbw" class="animable"></path><path d="M211,57a2.86,2.86,0,0,0,2.46,1.76,5.41,5.41,0,0,0,2.82-.71,3.13,3.13,0,0,0,1.93,1.23" style="fill: none; stroke: rgb(38, 50, 56); stroke-miterlimit: 10; transform-origin: 214.605px 58.14px;" id="eltb8o3u0x8xn" class="animable"></path><path d="M207.81,67.55a3.93,3.93,0,0,0,4.57,1.58" style="fill: none; stroke: rgb(38, 50, 56); stroke-miterlimit: 10; transform-origin: 210.095px 68.4459px;" id="eli1asw5j16tj" class="animable"></path><path d="M204.65,65.62s.17,1,1.58.88" style="fill: none; stroke: rgb(38, 50, 56); stroke-miterlimit: 10; transform-origin: 205.44px 66.065px;" id="el80lyy9vbkxl" class="animable"></path></g><g id="freepik--leaf-1--inject-58" class="animable" style="transform-origin: 132.439px 166.499px;"><path d="M200.74,71l-6.91,4.39S164,82,146.47,90.49s-58.66,34.81-69.32,58-15.06,69.95-14.43,85.95-3.45,26.34-2.83,28.85,11.3-5.33,16.94-9.09,48.31-14.12,63.68-39.84,27.92-65.56,33.25-78.42,16.94-40.78,18.51-46.43,3.13-8.46,4.7-10.66,7.22-7.22,7.22-7.22S207.64,66.65,200.74,71Z" style="fill: rgb(0, 255, 136); transform-origin: 132.439px 166.497px;" id="elquy7tnqd9wc" class="animable"></path><g id="ellg9y2ycx4o"><path d="M200.74,71l-6.91,4.39S164,82,146.47,90.49s-58.66,34.81-69.32,58-15.06,69.95-14.43,85.95-3.45,26.34-2.83,28.85c.12.48.59.58,1.32.42l4.64-8.26c0-1.88,61.48-103.51,75.91-123s52.7-54.9,52.7-54.9Z" style="opacity: 0.19; transform-origin: 130.283px 167.39px;" class="animable"></path></g><path d="M194.46,77.62s-38.27,35.45-52.7,54.9-75.91,121.08-75.91,123" style="fill: none; stroke: rgb(38, 50, 56); stroke-miterlimit: 10; transform-origin: 130.155px 166.57px;" id="elmaz09sr4dl8" class="animable"></path><path d="M162.52,97.61c-6.05-.65-13.67-1.25-16.68-.54-5.33,1.26-14.74,4.71-14.74,4.71" style="fill: none; stroke: rgb(38, 50, 56); stroke-miterlimit: 10; transform-origin: 146.81px 99.2648px;" id="eljahxogui47" class="animable"></path><path d="M170.94,98.64s-1.65-.23-4.12-.54" style="fill: none; stroke: rgb(38, 50, 56); stroke-miterlimit: 10; transform-origin: 168.88px 98.37px;" id="elv8jfj1t9vn" class="animable"></path><path d="M154.44,145.46c.5,9.54.5,21.88.5,21.88" style="fill: none; stroke: rgb(38, 50, 56); stroke-miterlimit: 10; transform-origin: 154.69px 156.4px;" id="el3mkcpnkupl9" class="animable"></path><path d="M103.18,129.7s13.18-8.47,21.33-9.1,26.35-.31,26.35-.31,2.1,9.81,3.08,18.75" style="fill: none; stroke: rgb(38, 50, 56); stroke-miterlimit: 10; transform-origin: 128.56px 129.624px;" id="eldk663rvj2b" class="animable"></path><path d="M169.87,129.28c-.18,5.35-.5,9.51-.5,9.51" style="fill: none; stroke: rgb(38, 50, 56); stroke-miterlimit: 10; transform-origin: 169.62px 134.035px;" id="el0cwhct6wo3f" class="animable"></path><path d="M166.23,105.86s3.76,8.47,3.76,16.62c0,.71,0,1.42,0,2.12" style="fill: none; stroke: rgb(38, 50, 56); stroke-miterlimit: 10; transform-origin: 168.11px 115.23px;" id="el01prl286pax" class="animable"></path><path d="M129.53,111.82a126.1,126.1,0,0,1-13.17,3.76" style="fill: none; stroke: rgb(38, 50, 56); stroke-miterlimit: 10; transform-origin: 122.945px 113.7px;" id="elqthbf21ref" class="animable"></path><path d="M163.41,108.05s-16,.42-27.19,2.26" style="fill: none; stroke: rgb(38, 50, 56); stroke-miterlimit: 10; transform-origin: 149.815px 109.18px;" id="el0badnbs8mnsv" class="animable"></path><path d="M161.21,89.86s9.1-2.2,16-.94" style="fill: none; stroke: rgb(38, 50, 56); stroke-miterlimit: 10; transform-origin: 169.21px 89.1952px;" id="elj0zqbicu8tk" class="animable"></path><path d="M181.6,92.37A36.33,36.33,0,0,1,186,104.91" style="fill: none; stroke: rgb(38, 50, 56); stroke-miterlimit: 10; transform-origin: 183.8px 98.64px;" id="el0bi2pv99i4t" class="animable"></path><path d="M139.88,138.17s10.67,33.87,7.22,58.34" style="fill: none; stroke: rgb(38, 50, 56); stroke-miterlimit: 10; transform-origin: 143.833px 167.34px;" id="elinkdg4zy9f" class="animable"></path><path d="M116.9,137.71c-12.37,1.11-27.8,3.72-36,9.87" style="fill: none; stroke: rgb(38, 50, 56); stroke-miterlimit: 10; transform-origin: 98.9px 142.645px;" id="eld1ksyrng9cu" class="animable"></path><path d="M135.49,136.91s-5.52-.09-13.22.39" style="fill: none; stroke: rgb(38, 50, 56); stroke-miterlimit: 10; transform-origin: 128.88px 137.102px;" id="eldntmuu7y89o" class="animable"></path><path d="M82.49,165.41c9.66-5.69,26.81-14.07,43.28-13.44" style="fill: none; stroke: rgb(38, 50, 56); stroke-miterlimit: 10; transform-origin: 104.13px 158.673px;" id="elgmpe7c3uarp" class="animable"></path><path d="M74.64,170.47s1.45-1.07,4-2.7" style="fill: none; stroke: rgb(38, 50, 56); stroke-miterlimit: 10; transform-origin: 76.64px 169.12px;" id="el6hxnslcfozd" class="animable"></path><path d="M131.68,172c2,13.31,3.16,32.92-2.78,49.25" style="fill: none; stroke: rgb(38, 50, 56); stroke-miterlimit: 10; transform-origin: 131.1px 196.625px;" id="elgs8n9sd3gen" class="animable"></path><path d="M128.59,156.67s1.18,4.21,2.35,10.84" style="fill: none; stroke: rgb(38, 50, 56); stroke-miterlimit: 10; transform-origin: 129.765px 162.09px;" id="el1fz08fxdiax" class="animable"></path><path d="M115.14,222.28a54.55,54.55,0,0,1-4.74,12.5" style="fill: none; stroke: rgb(38, 50, 56); stroke-miterlimit: 10; transform-origin: 112.77px 228.53px;" id="ellijx5zgbwpb" class="animable"></path><path d="M116.36,177.38s3.3,19.66.06,38.76" style="fill: none; stroke: rgb(38, 50, 56); stroke-miterlimit: 10; transform-origin: 117.102px 196.76px;" id="el05cmxqjsgd7h" class="animable"></path><path d="M74.49,192.09a41.52,41.52,0,0,0-6.13,8.18" style="fill: none; stroke: rgb(38, 50, 56); stroke-miterlimit: 10; transform-origin: 71.425px 196.18px;" id="el6jaxajxe0zh" class="animable"></path><path d="M112,174.55s-19.16,2-33.55,13.89" style="fill: none; stroke: rgb(38, 50, 56); stroke-miterlimit: 10; transform-origin: 95.225px 181.495px;" id="el3i2t4vaygb8" class="animable"></path><path d="M66.79,216.9s13.49-8.78,26.35-11" style="fill: none; stroke: rgb(38, 50, 56); stroke-miterlimit: 10; transform-origin: 79.965px 211.4px;" id="elgop7idy1ic" class="animable"></path><path d="M98.48,207.18s1.88,14.42-5.65,34.5" style="fill: none; stroke: rgb(38, 50, 56); stroke-miterlimit: 10; transform-origin: 95.7593px 224.43px;" id="elwdhsxy9788p" class="animable"></path><path d="M200.74,71l-6.91,4.39S164,82,146.47,90.49s-58.66,34.81-69.32,58-15.06,69.95-14.43,85.95-3.45,26.34-2.83,28.85,11.3-5.33,16.94-9.09,48.31-14.12,63.68-39.84,27.92-65.56,33.25-78.42,16.94-40.78,18.51-46.43,3.13-8.46,4.7-10.66,7.22-7.22,7.22-7.22S207.64,66.65,200.74,71Z" style="fill: none; stroke: rgb(38, 50, 56); stroke-miterlimit: 10; transform-origin: 132.439px 166.497px;" id="ellmhucu04tjh" class="animable"></path></g><defs>     <filter id="active" height="200%">         <feMorphology in="SourceAlpha" result="DILATED" operator="dilate" radius="2"></feMorphology>                <feFlood flood-color="#32DFEC" flood-opacity="1" result="PINK"></feFlood>        <feComposite in="PINK" in2="DILATED" operator="in" result="OUTLINE"></feComposite>        <feMerge>            <feMergeNode in="OUTLINE"></feMergeNode>            <feMergeNode in="SourceGraphic"></feMergeNode>        </feMerge>    </filter>    <filter id="hover" height="200%">        <feMorphology in="SourceAlpha" result="DILATED" operator="dilate" radius="2"></feMorphology>                <feFlood flood-color="#ff0000" flood-opacity="0.5" result="PINK"></feFlood>        <feComposite in="PINK" in2="DILATED" operator="in" result="OUTLINE"></feComposite>        <feMerge>            <feMergeNode in="OUTLINE"></feMergeNode>            <feMergeNode in="SourceGraphic"></feMergeNode>        </feMerge>            <feColorMatrix type="matrix" values="0   0   0   0   0                0   1   0   0   0                0   0   0   0   0                0   0   0   1   0 "></feColorMatrix>    </filter></defs></svg>